<svg xmlns="http://www.w3.org/2000/svg" width="54" height="16" viewBox="0 0 54 16" fill="none">
<path d="M15.2263 15.5V0.5H23.5385V3.34831H17.8465V6.36517H23.0547V9.21348H17.8465V12.6517H23.6375V15.5H15.2263Z" fill="#008247"/>
<path d="M26.2418 15.5V0.5H28.8621V15.5H26.2418Z" fill="#008247"/>
<path d="M31.7699 15.5V0.5H39.293L41.671 11.2303H41.7701L44.1481 0.5H46.6215L48.9995 11.2303H49.0986L51.4766 0.5H54V15.5H51.3797V3.53371H51.2806L48.5558 15.5H46.9189L44.1941 3.53371H44.095L41.3702 15.5H39.7333L36.9602 3.53371H36.8611V15.5H34.2408V0.5H31.7699Z" fill="#008247"/>
<path fill-rule="evenodd" clip-rule="evenodd" d="M10.9631 0.5H0V15.5H2.62028V9.16854L6.29743 15.5H8.77085L12.448 9.16854V15.5H15.0683V0.5H10.9631ZM10.0211 6.53933L7.64311 1.76966H7.54402L5.16603 6.53933L7.59132 11.7753L10.0211 6.53933Z" fill="#008247"/>
</svg>